/* XPM */
static char * close_unfocused_xpm[] = {
"16 16 20 1",
" 	c None",
".	c #AEB1B5",
"+	c #A2A6AC",
"@	c #A0A4A9",
"#	c #9DA1A7",
"$	c #9CA0A6",
"%	c #C2C8CF",
"&	c #9B9FA5",
"*	c #9A9EA3",
"=	c #979CA1",
"-	c #92979C",
";	c #8D9297",
">	c #888C91",
",	c #83878C",
"'	c #7D8287",
")	c #787D82",
"!	c #73787C",
"~	c #72777B",
"{	c #6E7377",
"]	c #4E5255",
"................",
"++++++++++++++++",
"@@@@@@@@@@@@@@@@",
"#$#%$##$##$%$#$$",
"&&&&&&&&&&&&&&&&",
"*****%***%******",
"================",
"-------%--------",
";;;;;;;;;;;;;;;;",
">>>>>%>>>%>>>>>>",
",,,,,,,,,,,,,,,,",
"'''%'''''''%''''",
"))))))))))))))))",
"!~!!~!!~!!~!~!~!",
"{{{{{{{{{{{{{{{{",
"]]]]]]]]]]]]]]]]"};
