/* XPM */
static char * close_pressed_xpm[] = {
"16 16 34 1",
" 	c None",
".	c #171718",
"+	c #222223",
"@	c #232324",
"#	c #262628",
"$	c #2A2A2C",
"%	c #2B2B2D",
"&	c #595959",
"*	c #000000",
"=	c #2D2E31",
"-	c #2E2F32",
";	c #9BA0A6",
">	c #313235",
",	c #323336",
"'	c #35363A",
")	c #36373B",
"!	c #393A3E",
"~	c #3A3B3F",
"{	c #3C3E42",
"]	c #3D3F43",
"^	c #404247",
"/	c #414348",
"(	c #44464B",
"_	c #45474C",
":	c #484A4F",
"<	c #494B51",
"[	c #4A4B51",
"}	c #4A4C52",
"|	c #4B4E54",
"1	c #4D4F56",
"2	c #4D5057",
"3	c #4F5258",
"4	c #63656C",
"5	c #64676E",
"................",
"+@+@+@+@+@+@+@+@",
"################",
"$%&*&%$%$%&*&%$%",
"=-&;&-=-=-&;&-=-",
">,>,&*&,&*&,>,>,",
"')')&;&)&;&)')')",
"!~!~!~&*&~!~!~!~",
"{]{]{]&;&]{]{]{]",
"^/^/&*&/&*&/^/^/",
"(_(_&;&_&;&_(_(_",
":<&*&<:<:<&*&<:<",
"[}&;&}[}[}&;&}[}",
"|1|1|1|1|1|1|1|1",
"2323232323232323",
"4545454545454545"};
