/* XPM */
static char * minimize_xpm[] = {
"16 16 34 1",
" 	c None",
".	c #63656C",
"+	c #64676E",
"@	c #4D5057",
"#	c #4F5258",
"$	c #4B4E54",
"%	c #4D4F56",
"&	c #4A4B51",
"*	c #4A4C52",
"=	c #595959",
"-	c #C2C8CF",
";	c #484A4F",
">	c #494B51",
",	c #000000",
"'	c #44464B",
")	c #45474C",
"!	c #404247",
"~	c #414348",
"{	c #3C3E42",
"]	c #3D3F43",
"^	c #393A3E",
"/	c #3A3B3F",
"(	c #35363A",
"_	c #36373B",
":	c #313235",
"<	c #323336",
"[	c #2D2E31",
"}	c #2E2F32",
"|	c #2A2A2C",
"1	c #2B2B2D",
"2	c #262628",
"3	c #222223",
"4	c #232324",
"5	c #171718",
".+.+.+.+.+.+.+.+",
"@#@#@#@#@#@#@#@#",
"$%%%%%%%%%%%%%%%",
"&*=-=-***-=-=*&*",
";>=,=,>>>,=,=>;>",
"')=-=)))))=-=)')",
"!~=,=~~~~~=,=~!~",
"{]]]]]]]]]]]]]{]",
"^/////////////^/",
"(_=-=_____=-=_(_",
":<=,=<<<<<=,=<:<",
"[}=-=-}}}-=-=}}}",
"||=,=,|||,=,=||1",
"2222222222222222",
"3434343434343434",
"5555555555555555"};
