/* XPM */
static char * menu_hilitegrad_xpm[] = {
"20 20 95 2",
"  	c None",
". 	c #D7D7D8",
"+ 	c #DDE1E3",
"@ 	c #DDE0E3",
"# 	c #DEE0E3",
"$ 	c #DEE1E2",
"% 	c #DEE1E3",
"& 	c #DEE0E2",
"* 	c #DDDFE1",
"= 	c #DCE0E1",
"- 	c #DCDFE1",
"; 	c #DDDFE2",
"> 	c #DDE0E1",
", 	c #DCE0E2",
"' 	c #DCDFE2",
") 	c #DADEE0",
"! 	c #DBDEE0",
"~ 	c #DADDE0",
"{ 	c #DBDEDF",
"] 	c #DADCDF",
"^ 	c #D9DDDF",
"/ 	c #D9DCDE",
"( 	c #DADCDE",
"_ 	c #D9DCDF",
": 	c #DADDDE",
"< 	c #DADDDF",
"[ 	c #D8DBDD",
"} 	c #D9DBDD",
"| 	c #D8DBDE",
"1 	c #D8DADD",
"2 	c #D9DBDE",
"3 	c #D7D9DB",
"4 	c #D7D9DC",
"5 	c #D7DADB",
"6 	c #D6D9DC",
"7 	c #D7DADC",
"8 	c #D6DADC",
"9 	c #D5D8DA",
"0 	c #D5D8DB",
"a 	c #D6D8DA",
"b 	c #D6D8DB",
"c 	c #D6D9DA",
"d 	c #D4D6D9",
"e 	c #D5D7D9",
"f 	c #D4D7D9",
"g 	c #D5D6D9",
"h 	c #D4D6DA",
"i 	c #D3D5D8",
"j 	c #D3D5D7",
"k 	c #D2D5D8",
"l 	c #D2D5D7",
"m 	c #D3D6D7",
"n 	c #D3D6D8",
"o 	c #D1D4D6",
"p 	c #D2D4D6",
"q 	c #D1D4D7",
"r 	c #D1D3D6",
"s 	c #D2D4D7",
"t 	c #D0D2D5",
"u 	c #D0D3D5",
"v 	c #D0D2D6",
"w 	c #D0D3D6",
"x 	c #D1D2D5",
"y 	c #CED1D4",
"z 	c #CED0D3",
"A 	c #CED1D3",
"B 	c #CFD1D3",
"C 	c #CFD1D4",
"D 	c #CFD2D4",
"E 	c #CDCFD2",
"F 	c #CDD0D2",
"G 	c #CDCFD3",
"H 	c #CECFD2",
"I 	c #CDD0D3",
"J 	c #CECFD3",
"K 	c #CCCED1",
"L 	c #CBCED1",
"M 	c #CCCED0",
"N 	c #CBCFD1",
"O 	c #CCCFD0",
"P 	c #CCCFD1",
"Q 	c #CDCED1",
"R 	c #CACCCF",
"S 	c #CBCCCF",
"T 	c #CBCDCF",
"U 	c #CBCCD0",
"V 	c #CACDD0",
"W 	c #CBCDD0",
"X 	c #CACDCF",
"Y 	c #C9CBCE",
"Z 	c #C9CBCF",
"` 	c #CACBCF",
" .	c #CACBCE",
"..	c #C9CCCF",
"+.	c #ABABAB",
". . . . . . . . . . . . . . . . . . . . ",
"+ @ # # + + $ + # % & # $ & % $ $ & & % ",
"* = - - ; - > - = * , ; ' - - ; - ; ; > ",
") ! ~ ~ { ! ! ~ ! ! ! ! ! ! ! ! ! ! ! ! ",
"] ^ / / ( ] ] ] ( ] ^ _ ( ] : _ < : : ^ ",
"[ [ } } [ } | [ 1 2 1 [ | [ } [ | } } } ",
"3 4 4 4 4 5 6 5 6 7 7 4 4 8 7 7 8 4 4 4 ",
"9 0 a a 0 0 b 9 0 0 9 9 9 0 a 0 0 c c a ",
"d e f f f f d e d e g f d h d f d f f f ",
"d d d d d d d d d d d d d d d d d d d d ",
"d d d d d d d d d d d d d d d d d d d d ",
"i i j j i k l i i i j m i i i i n k k i ",
"o o o o o o p o p q r o p o o q p q q s ",
"t t t t t u t u t t t t t u v v w u u x ",
"y z A A B C C A A C y C y y y B D C C C ",
"E E F F F F F E G z z F H F I z J F F F ",
"K K L L M K K N K K O P P K P K Q K K K ",
"R S T T U V T V W W V U T S W X W W W W ",
"Y Y Y Y Y Y Y Z ` Y Y Y Y Y  .Y Y ....Z ",
"+.+.+.+.+.+.+.+.+.+.+.+.+.+.+.+.+.+.+.+."};
