/* XPM */
static char * menu_title_bg_xpm[] = {
"20 20 160 2",
"  	c None",
". 	c #474A50",
"+ 	c #606268",
"@ 	c #606368",
"# 	c #616469",
"$ 	c #46484E",
"% 	c #46494F",
"& 	c #46494E",
"* 	c #45494F",
"= 	c #46484F",
"- 	c #45484E",
"; 	c #45494E",
"> 	c #44484E",
", 	c #43464C",
"' 	c #5C5F64",
") 	c #5B5F64",
"! 	c #43464B",
"~ 	c #5B5F63",
"{ 	c #42464C",
"] 	c #5C5F65",
"^ 	c #42464B",
"/ 	c #43454B",
"( 	c #5D5F64",
"_ 	c #42454B",
": 	c #5C6065",
"< 	c #42454C",
"[ 	c #5C6064",
"} 	c #5D5F65",
"| 	c #404349",
"1 	c #404449",
"2 	c #3F434A",
"3 	c #404348",
"4 	c #3F4349",
"5 	c #3F4348",
"6 	c #3F4248",
"7 	c #3D4147",
"8 	c #575B60",
"9 	c #575B5F",
"0 	c #3D4046",
"a 	c #575A5F",
"b 	c #3C4046",
"c 	c #565A5F",
"d 	c #575A60",
"e 	c #585A60",
"f 	c #585A5F",
"g 	c #3A3E44",
"h 	c #3A3E43",
"i 	c #393E43",
"j 	c #393D43",
"k 	c #393E42",
"l 	c #3A3E42",
"m 	c #3A3D43",
"n 	c #373C41",
"o 	c #51555A",
"p 	c #373B41",
"q 	c #52555B",
"r 	c #373B40",
"s 	c #52555A",
"t 	c #363B40",
"u 	c #363A41",
"v 	c #53555A",
"w 	c #363A40",
"x 	c #34393E",
"y 	c #35393E",
"z 	c #34383D",
"A 	c #34383E",
"B 	c #33383D",
"C 	c #32363B",
"D 	c #4D5055",
"E 	c #31363B",
"F 	c #4C5055",
"G 	c #31353B",
"H 	c #4D5155",
"I 	c #31363A",
"J 	c #30353A",
"K 	c #2E3439",
"L 	c #2F3338",
"M 	c #2F3438",
"N 	c #2F3339",
"O 	c #2F3439",
"P 	c #2E3338",
"Q 	c #2E3339",
"R 	c #2E3238",
"S 	c #2E3337",
"T 	c #2C3135",
"U 	c #474B50",
"V 	c #2B3136",
"W 	c #464B50",
"X 	c #2B3036",
"Y 	c #484C4F",
"Z 	c #2B3135",
"` 	c #484B4F",
" .	c #484B50",
"..	c #2C3035",
"+.	c #474B4F",
"@.	c #474C50",
"#.	c #2B3035",
"$.	c #484C50",
"%.	c #2A2F33",
"&.	c #292E34",
"*.	c #292F33",
"=.	c #292E33",
"-.	c #282E33",
";.	c #292E32",
">.	c #282D32",
",.	c #292D33",
"'.	c #262B30",
").	c #42474B",
"!.	c #262C31",
"~.	c #42464A",
"{.	c #262C30",
"].	c #42474A",
"^.	c #252B30",
"/.	c #23292E",
"(.	c #24292E",
"_.	c #23282D",
":.	c #23292D",
"<.	c #22282D",
"[.	c #22282C",
"}.	c #21262B",
"|.	c #3C4145",
"1.	c #20262A",
"2.	c #3B4145",
"3.	c #20262B",
"4.	c #3B4144",
"5.	c #21262A",
"6.	c #3C4246",
"7.	c #20252A",
"8.	c #1D2328",
"9.	c #1E2428",
"0.	c #1D2428",
"a.	c #1E2328",
"b.	c #1E2427",
"c.	c #1D2327",
"d.	c #1D2228",
"e.	c #1B2126",
"f.	c #1B2125",
"g.	c #353B3F",
"h.	c #1A2125",
"i.	c #363B3F",
"j.	c #373C40",
"k.	c #373B3F",
"l.	c #1A2025",
"m.	c #181E23",
"n.	c #181E22",
"o.	c #181F23",
"p.	c #171E22",
"q.	c #171E23",
"r.	c #171D22",
"s.	c #171D21",
"t.	c #151C20",
"u.	c #30363A",
"v.	c #161B20",
"w.	c #151B20",
"x.	c #303639",
"y.	c #151B1F",
"z.	c #31373A",
"A.	c #141C1F",
"B.	c #141B1F",
"C.	c #141B20",
". . . . . . . . . . . . . . . . . . . . ",
". + . + . @ . @ . @ . @ . @ . # . # . # ",
"$ $ % & % * = * $ & - ; - - - - - > - > ",
", ' , ) ! ~ { ] ^ ' / ( , ' _ : < [ _ } ",
"| 1 2 1 | 1 3 | 4 4 4 3 | 5 4 | 4 5 4 6 ",
"7 8 7 9 7 8 0 a b c 0 d 0 d b e 0 d b f ",
"g g h g h h h h h g h h i h i j k h l m ",
"n o p o n q r s p q t s r o t s u v w s ",
"x x y x y z x x A x x z x z x A A A B z ",
"C D C D E F C F G F C H E D I D J H I D ",
"K L M N O L P L K L P Q L L P R L P R S ",
"T U V W T U X Y Z ` X  ...+.Z @.X  .#.$.",
"%.%.&.*.=.=.=.=.=.-.-.;.>.;.=.>.,.,.-.-.",
"'.).'.^ !.~.{.].!.~.{.~.^.].'.).'.).'.).",
"/./.(.(._.:._._././.:._.:._._.<._.[.<._.",
"}.|.}.|.1.2.3.4.5.2.1.|.5.6.3.|.7.|.1.2.",
"8.9.9.8.0.9.9.a.b.8.a.8.a.c.c.8.c.8.d.d.",
"e.t f.t f.g.h.i.h.j.f.j.f.k.l.t l.t l.i.",
"m.n.o.m.m.m.p.n.m.q.p.n.n.p.p.n.p.r.s.r.",
"t.u.v.u.w.x.y.z.w.E w.E A.I y.E B.u.C.J "};
