/* XPM */
static char * minimize_xpm[] = {
"16 16 48 1",
" 	c None",
".	c #63656C",
"+	c #64676E",
"@	c #4D5057",
"#	c #4F5258",
"$	c #4B4E54",
"%	c #4D4F56",
"&	c #4A4B51",
"*	c #4A4C52",
"=	c #484A4F",
"-	c #494B51",
";	c #545455",
">	c #C2C8CF",
",	c #595959",
"'	c #44464B",
")	c #45474C",
"!	c #535455",
"~	c #000000",
"{	c #545556",
"]	c #404247",
"^	c #414348",
"/	c #3C3E42",
"(	c #3D3F43",
"_	c #4C4D4E",
":	c #535454",
"<	c #515252",
"[	c #393A3E",
"}	c #3A3B3F",
"|	c #535354",
"1	c #35363A",
"2	c #36373B",
"3	c #4F4F50",
"4	c #525253",
"5	c #505152",
"6	c #4F4F51",
"7	c #313235",
"8	c #323336",
"9	c #4E4F4F",
"0	c #2D2E31",
"a	c #2E2F32",
"b	c #4E4E4E",
"c	c #4F4F4F",
"d	c #2A2A2C",
"e	c #2B2B2D",
"f	c #262628",
"g	c #222223",
"h	c #232324",
"i	c #171718",
".+.+.+.+.+.+.+.+",
"@#@#@#@#@#@#@#@#",
"$%$%$%$%$%$%$%$%",
"&*&*&*&*&*&*&*&*",
"=-;>,>,>,>,>,>;-",
"')!~,~,~,~,~,~{)",
"]]^;>;]^]]^;>;]^",
"//(_~:/(//(:~</(",
"[}[}[|>|[|>|[}[}",
"121213~415~61212",
"7878787<>9878778",
"0a0a0a0b~ca0a00a",
"dededededededede",
"ffffffffffffffff",
"ghghghghghghghgh",
"iiiiiiiiiiiiiiii"};
