/* XPM */
static char * minimize_pressed_xpm[] = {
"16 16 51 1",
" 	c None",
".	c #171718",
"+	c #222223",
"@	c #232324",
"#	c #262628",
"$	c #2A2A2C",
"%	c #2B2B2D",
"&	c #2D2E31",
"*	c #2E2F32",
"=	c #525253",
"-	c #000000",
";	c #595959",
">	c #555556",
",	c #313235",
"'	c #323336",
")	c #505152",
"!	c #9BA0A6",
"~	c #575757",
"{	c #575758",
"]	c #505153",
"^	c #35363A",
"/	c #36373B",
"(	c #535354",
"_	c #545455",
":	c #393A3E",
"<	c #3A3B3F",
"[	c #515353",
"}	c #525353",
"|	c #3C3E42",
"1	c #3D3F43",
"2	c #404247",
"3	c #414348",
"4	c #4E4E50",
"5	c #515152",
"6	c #44464B",
"7	c #45474C",
"8	c #505151",
"9	c #020202",
"0	c #515252",
"a	c #484A4F",
"b	c #494B51",
"c	c #505051",
"d	c #515151",
"e	c #4A4B51",
"f	c #4A4C52",
"g	c #4B4E54",
"h	c #4D4F56",
"i	c #4D5057",
"j	c #4F5258",
"k	c #63656C",
"l	c #64676E",
"................",
"+@+@+@+@+@+@+@+@",
"################",
"$%$%$%$%$%$%$%$%",
"&*=-;-;-;-;-;->*",
",')!;!~!{!;!;!]'",
"^/^(-_^/^/^_-_^/",
":<:[!}:<:<:}!}:<",
"|1|1|=-(|(-(|1|1",
"232324!525!52323",
"6767676890676767",
"abababac!dababab",
"efefefefefefefef",
"ghghghghghghghgh",
"ijijijijijijijij",
"klklklklklklklkl"};
