/* XPM */
static char * pressed_xpm[] = {
"16 16 31 1",
" 	c None",
".	c #171718",
"+	c #222223",
"@	c #232324",
"#	c #262628",
"$	c #2A2A2C",
"%	c #2B2B2D",
"&	c #2D2E31",
"*	c #2E2F32",
"=	c #313235",
"-	c #323336",
";	c #35363A",
">	c #36373B",
",	c #393A3E",
"'	c #3A3B3F",
")	c #3C3E42",
"!	c #3D3F43",
"~	c #404247",
"{	c #414348",
"]	c #44464B",
"^	c #45474C",
"/	c #484A4F",
"(	c #494B51",
"_	c #4A4B51",
":	c #4A4C52",
"<	c #4B4E54",
"[	c #4D4F56",
"}	c #4D5057",
"|	c #4F5258",
"1	c #63656C",
"2	c #64676E",
"................",
"+@+@+@+@+@+@+@+@",
"################",
"$%$%$%$%$%$%$%$%",
"&*&*&*&*&*&*&*&*",
"=-=-=-=-=-=-=-=-",
";>;>;>;>;>;>;>;>",
",',',',',',',','",
")!)!)!)!)!)!)!)!",
"~{~{~{~{~{~{~{~{",
"]^]^]^]^]^]^]^]^",
"/(/(/(/(/(/(/(/(",
"_:_:_:_:_:_:_:_:",
"<[<[<[<[<[<[<[<[",
"}|}|}|}|}|}|}|}|",
"1212121212121212"};
