/* XPM */
static char * selected_xpm[] = {
"18 18 3 1",
" 	c None",
".	c #DFBE17",
"+	c #FFD600",
"                  ",
"                  ",
"                  ",
"                  ",
"                  ",
"                  ",
"      .......     ",
"      .+++++.     ",
"      .+++++.     ",
"      .+++++.     ",
"      .+++++.     ",
"      .+++++.     ",
"      .......     ",
"                  ",
"                  ",
"                  ",
"                  ",
"                  "};
