/* XPM */
static char * menuselected_xpm[] = {
"19 19 7 1",
" 	c None",
".	c #575757",
"+	c #313131",
"@	c #181818",
"#	c #01C3FF",
"$	c #01DDFF",
"%	c #017CFF",
"                   ",
"                   ",
"                   ",
"                   ",
"                   ",
"     ........+     ",
"     .+++++++@     ",
"     .+#####+@     ",
"     .+#$$$%+@     ",
"     .+#$$$%+@     ",
"     .+#$$$%+@     ",
"     .+%%%%%+@     ",
"     .+++++++@     ",
"     +@@@@@@@@     ",
"                   ",
"                   ",
"                   ",
"                   ",
"                   "};
