/* XPM */
static char * shadefcs_xpm[] = {
"19 19 8 1",
" 	c None",
".	c #575757",
"+	c #313131",
"@	c #181818",
"#	c #414141",
"$	c #343434",
"%	c #01DDFF",
"&	c #000000",
"...................",
"+++++++++++++++++++",
"+++++++++++++++++++",
"@@@@@@@@@@@@@@@@@@@",
"###################",
"$$$$$$$$$$$$$$$$$$$",
"+++++++++++++++++++",
"+++++++++++++++++++",
"+++++++++++++++++++",
"+++++++++++++++++++",
"++++++++%%%++++++++",
"++++++++&&&++++++++",
"+++++++++++++++++++",
"+++++++++++++++++++",
"+++++++++++++++++++",
"+++++++++++++++++++",
"+++++++++++++++++++",
"+++++++++++++++++++",
"+++++++++++++++++++"};
